<svg width="800" height="600" viewBox="0 0 800 600" xmlns="http://www.w3.org/2000/svg">
    <!-- Background -->
    <rect width="800" height="600" fill="#f5f5f5"/>
    
    <!-- Network Grid -->
    <g id="network-grid" stroke="#2563eb" stroke-width="1" opacity="0.2">
        <line x1="100" y1="100" x2="700" y2="100"/>
        <line x1="100" y1="200" x2="700" y2="200"/>
        <line x1="100" y1="300" x2="700" y2="300"/>
        <line x1="100" y1="400" x2="700" y2="400"/>
        <line x1="100" y1="500" x2="700" y2="500"/>
        
        <line x1="100" y1="100" x2="100" y2="500"/>
        <line x1="200" y1="100" x2="200" y2="500"/>
        <line x1="300" y1="100" x2="300" y2="500"/>
        <line x1="400" y1="100" x2="400" y2="500"/>
        <line x1="500" y1="100" x2="500" y2="500"/>
        <line x1="600" y1="100" x2="600" y2="500"/>
        <line x1="700" y1="100" x2="700" y2="500"/>
    </g>
    
    <!-- Connection Points -->
    <g id="connection-points">
        <circle cx="200" cy="200" r="8" fill="#2563eb"/>
        <circle cx="400" cy="300" r="8" fill="#2563eb"/>
        <circle cx="600" cy="400" r="8" fill="#2563eb"/>
        <circle cx="300" cy="400" r="8" fill="#2563eb"/>
        <circle cx="500" cy="200" r="8" fill="#2563eb"/>
    </g>
    
    <!-- Connection Lines -->
    <g id="connections" stroke="#2563eb" stroke-width="2">
        <path d="M200,200 Q300,250 400,300" fill="none"/>
        <path d="M400,300 Q500,350 600,400" fill="none"/>
        <path d="M300,400 Q400,350 500,200" fill="none"/>
    </g>
    
    <!-- Globe Icon -->
    <circle cx="400" cy="300" r="40" fill="none" stroke="#333333" stroke-width="2"/>
    <path d="M360,300 h80 M400,260 v80" stroke="#333333" stroke-width="2"/>
    <circle cx="400" cy="300" r="30" fill="none" stroke="#333333" stroke-width="2"/>
</svg> 