<svg height="1350" viewBox="0 0 1080 1350" width="1080" xmlns="http://www.w3.org/2000/svg"><path d="m0 0h1080v1350h-1080z" fill="#fff9fb"/><rect fill="#fff" height="1270" rx="8" width="1000" x="40" y="40"/><text fill="#4d4d4d" font-family="PT Sans, Arial, sans-serif" font-size="30" font-weight="700" letter-spacing="0" x="90" y="104">graphit<tspan fill="#8d0000">Edge</tspan></text><path d="m90 132h900v2h-900z" fill="#d3d4d9"/><g letter-spacing="0"><text fill="#8d0000" font-family="PT Sans, Arial, sans-serif" font-size="24" font-weight="700" x="90" y="182">From Design to Website</text><text fill="#4d4d4d" font-family="PT Sans, Arial, sans-serif" font-size="24" font-weight="700" text-anchor="end" x="990" y="182">1/6</text><text fill="#8d0000" font-family="PT Sans, Arial, sans-serif" font-size="28" font-weight="700" x="90" y="264">Design to Code</text><text fill="#242424" font-family="Raleway, Arial, sans-serif" font-size="68" font-weight="700" x="90" y="350">A design mockup is not</text><text fill="#242424" font-family="Raleway, Arial, sans-serif" font-size="68" font-weight="700" x="90" y="426.16">just a picture.</text><text fill="#4d4d4d" font-family="PT Sans, Arial, sans-serif" font-size="38" font-weight="400" x="92" y="555">It is full of decisions you can translate</text><text fill="#4d4d4d" font-family="PT Sans, Arial, sans-serif" font-size="38" font-weight="400" x="92" y="605.16">into page structure and CSS.</text></g><rect fill="#fff" height="360" rx="8" stroke="#d3d4d9" stroke-width="3" width="600" x="240" y="725"/><rect fill="#8d0000" height="54" opacity=".9" rx="8" width="500" x="290" y="780"/><rect fill="#f9eae1" height="110" rx="8" width="500" x="290" y="865"/><rect fill="#c9e4ca" height="52" rx="8" width="230" x="290" y="1005"/><rect fill="#c9e4ca" height="52" rx="8" width="230" x="560" y="1005"/><path d="m90 1214h900v2h-900z" fill="#d3d4d9"/><text fill="#8d0000" font-family="PT Sans, Arial, sans-serif" font-size="28" font-weight="700" letter-spacing="0" x="90" y="1268">How to Read a Design</text><text style="text-anchor:end;font-family:PT Sans, Arial, sans-serif;font-size:24;font-weight:400;letter-spacing:0;fill:#4d4d4d" x="990" y="1268">GraphitEdge tutorials</text></svg>