<svg width="400" height="180" viewBox="0 0 400 180" fill="none" xmlns="http://www.w3.org/2000/svg">
  <rect width="400" height="180" rx="24" fill="#F7F7FA" />
  <g>
    <g>
      <rect x="24" y="32" width="72" height="96" rx="12" fill="#fff" stroke="#F59E42" stroke-width="2.5" />
      <circle cx="60" cy="56" r="12" fill="#F59E42" />
      <rect x="40" y="80" width="40" height="8" rx="2" fill="#FDE68A" />
      <rect x="40" y="96" width="32" height="8" rx="2" fill="#FDE68A" />
      <text x="60" y="130" text-anchor="middle" font-size="0.8rem" font-family="Inter, Arial, sans-serif"
        fill="#F59E42">Diving in</text>
    </g>
    <g>
      <rect x="112" y="32" width="72" height="96" rx="12" fill="#fff" stroke="#6366F1" stroke-width="2.5" />
      <rect x="140" y="48" width="16" height="32" rx="4" fill="#6366F1" />
      <rect x="132" y="88" width="32" height="8" rx="2" fill="#E0E7FF" />
      <rect x="132" y="104" width="24" height="8" rx="2" fill="#E0E7FF" />
      <text x="148" y="130" text-anchor="middle" font-size="0.8rem" font-family="Inter, Arial, sans-serif"
        fill="#6366F1">Missing mobile</text>
    </g>
    <g>
      <rect x="200" y="32" width="72" height="96" rx="12" fill="#fff" stroke="#EF4444" stroke-width="2.5" />
      <rect x="224" y="56" width="24" height="8" rx="2" fill="#FCA5A5" />
      <rect x="216" y="72" width="40" height="8" rx="2" fill="#FCA5A5" />
      <rect x="216" y="88" width="32" height="8" rx="2" fill="#FCA5A5" />
      <circle cx="236" cy="104" r="6" fill="#EF4444" />
      <text x="236" y="130" text-anchor="middle" font-size="0.8rem" font-family="Inter, Arial, sans-serif"
        fill="#EF4444">Overlooked states</text>
    </g>
    <g>
      <rect x="288" y="32" width="72" height="96" rx="12" fill="#fff" stroke="#10B981" stroke-width="2.5" />
      <rect x="312" y="56" width="24" height="8" rx="2" fill="#6EE7B7" />
      <rect x="304" y="72" width="40" height="8" rx="2" fill="#6EE7B7" />
      <rect x="304" y="88" width="32" height="8" rx="2" fill="#6EE7B7" />
      <rect x="320" y="104" width="8" height="8" rx="2" fill="#10B981" />
      <text x="324" y="130" text-anchor="middle" font-size="0.8rem" font-family="Inter, Arial, sans-serif"
        fill="#10B981">Naming</text>
    </g>
  </g>
  <text x="200" y="24" text-anchor="middle" font-size="1.2rem" font-family="Inter, Arial, sans-serif" fill="#6366F1"
    font-weight="bold">Common Pitfalls</text>
  <text x="200" y="160" text-anchor="middle" font-size="0.9rem" font-family="Inter, Arial, sans-serif"
    fill="#B3B3D1">Diving in • Missing mobile • Overlooked states • Naming</text>
</svg>