<svg width="800" height="600" viewBox="0 0 800 600" xmlns="http://www.w3.org/2000/svg">
  <!-- Background Grid -->
  <defs>
    <pattern id="grid" width="40" height="40" patternUnits="userSpaceOnUse">
      <path d="M 40 0 L 0 0 0 40" fill="none" stroke="#f0f0f0" stroke-width="1"/>
    </pattern>
  </defs>
  <rect width="100%" height="100%" fill="url(#grid)" />

  <!-- DNS Server -->
  <g transform="translate(400, 150)">
    <rect x="-60" y="-60" width="120" height="120" rx="10" fill="#3298dc" opacity="0.9"/>
    <text x="0" y="0" font-family="monospace" font-size="14" fill="white" text-anchor="middle">DNS Server</text>
    <circle cx="0" cy="0" r="40" fill="none" stroke="white" stroke-width="2" stroke-dasharray="4 2"/>
  </g>

  <!-- Client Browser -->
  <g transform="translate(200, 300)">
    <rect x="-50" y="-30" width="100" height="60" rx="5" fill="#48c774" opacity="0.9"/>
    <text x="0" y="0" font-family="monospace" font-size="12" fill="white" text-anchor="middle">Browser</text>
  </g>

  <!-- Web Server -->
  <g transform="translate(600, 300)">
    <rect x="-50" y="-40" width="100" height="80" rx="5" fill="#ff3860" opacity="0.9"/>
    <text x="0" y="0" font-family="monospace" font-size="12" fill="white" text-anchor="middle">Web Server</text>
  </g>

  <!-- Connection Lines -->
  <g stroke-width="2" fill="none">
    <!-- DNS Query -->
    <path d="M 200,280 Q 300,200 340,150" stroke="#3298dc" stroke-dasharray="5,5">
      <animate attributeName="stroke-dashoffset" from="0" to="20" dur="1s" repeatCount="indefinite"/>
    </path>
    <!-- DNS Response -->
    <path d="M 340,150 Q 300,200 200,320" stroke="#48c774" stroke-dasharray="5,5">
      <animate attributeName="stroke-dashoffset" from="0" to="-20" dur="1s" repeatCount="indefinite"/>
    </path>
    <!-- Web Request -->
    <path d="M 250,300 L 550,300" stroke="#ff3860" stroke-dasharray="5,5">
      <animate attributeName="stroke-dashoffset" from="0" to="20" dur="1s" repeatCount="indefinite"/>
    </path>
  </g>

  <!-- Domain Names -->
  <g font-family="monospace" font-size="12" fill="#666">
    <text x="400" y="450" text-anchor="middle">www.example.com ↔ 192.168.1.1</text>
  </g>

  <!-- Decorative Elements -->
  <g fill="#ddd" opacity="0.5">
    <circle cx="100" cy="100" r="20"/>
    <circle cx="700" cy="500" r="15"/>
    <circle cx="150" cy="450" r="10"/>
    <circle cx="650" cy="150" r="25"/>
  </g>
</svg>