<?xml version="1.0" encoding="UTF-8"?>
<svg width="1200" height="600" viewBox="0 0 1200 600" xmlns="http://www.w3.org/2000/svg">
    <!-- Background gradient -->
    <defs>
        <linearGradient id="bg-gradient" x1="0%" y1="0%" x2="100%" y2="100%">
            <stop offset="0%" style="stop-color:#2C3E50;stop-opacity:1" />
            <stop offset="100%" style="stop-color:#1A2530;stop-opacity:1" />
        </linearGradient>
        <filter id="shadow" x="-20%" y="-20%" width="140%" height="140%">
            <feGaussianBlur in="SourceAlpha" stdDeviation="3" />
            <feOffset dx="2" dy="2" result="offsetblur" />
            <feComponentTransfer>
                <feFuncA type="linear" slope="0.2" />
            </feComponentTransfer>
            <feMerge>
                <feMergeNode />
                <feMergeNode in="SourceGraphic" />
            </feMerge>
        </filter>
    </defs>

    <!-- Background -->
    <rect width="1200" height="600" fill="url(#bg-gradient)" />

    <!-- Main Git branch structure -->
    <g transform="translate(600, 300)">
        <!-- Main branch line -->
        <line x1="-400" y1="0" x2="400" y2="0" stroke="#F05032" stroke-width="8" stroke-linecap="round" />
        
        <!-- Branch points -->
        <circle cx="-200" cy="0" r="12" fill="#F05032" filter="url(#shadow)" />
        <circle cx="0" cy="0" r="12" fill="#F05032" filter="url(#shadow)" />
        <circle cx="200" cy="0" r="12" fill="#F05032" filter="url(#shadow)" />
        
        <!-- Feature branch -->
        <path d="M0,0 C50,-100 150,-100 200,-50" stroke="#6CC644" stroke-width="6" stroke-linecap="round" fill="none" />
        <circle cx="200" cy="-50" r="10" fill="#6CC644" filter="url(#shadow)" />
        
        <!-- Commit messages -->
        <g fill="#FFFFFF" font-family="Arial, sans-serif" font-size="24" text-anchor="middle">
            <text x="-200" y="40">Initial commit</text>
            <text x="0" y="40">Add features</text>
            <text x="200" y="40">Update docs</text>
            <text x="200" y="-80">New feature</text>
        </g>
        
        <!-- Git logo elements -->
        <g transform="translate(-500, -200)">
            <!-- Git logo base -->
            <path d="M100,100 L200,100 L150,200 Z" fill="#F05032" filter="url(#shadow)" />
            <path d="M100,100 L150,0 L200,100 Z" fill="#F05032" filter="url(#shadow)" />
        </g>
    </g>

    <!-- Decorative elements -->
    <g opacity="0.1">
        <circle cx="200" cy="100" r="50" fill="#FFFFFF" />
        <circle cx="1000" cy="500" r="80" fill="#FFFFFF" />
        <circle cx="800" cy="150" r="60" fill="#FFFFFF" />
    </g>
</svg> 