<svg width="800" height="400" viewBox="0 0 800 400" xmlns="http://www.w3.org/2000/svg">
    <!-- Background -->
    <rect width="800" height="400" fill="#f7df1e"/>
    
    <!-- JS Logo -->
    <rect x="50" y="50" width="300" height="300" fill="#000000"/>
    <text x="120" y="250" font-family="Arial" font-size="160" fill="#f7df1e">JS</text>
    
    <!-- Interactive Elements -->
    <g transform="translate(400, 50)">
        <!-- Button -->
        <rect x="50" y="50" width="120" height="40" rx="20" fill="#4CAF50" class="clickable"/>
        <text x="80" y="75" font-family="Arial" font-size="16" fill="white">Click Me!</text>
        
        <!-- Form Input -->
        <rect x="50" y="120" width="200" height="40" rx="5" fill="white" stroke="#333" stroke-width="2"/>
        <text x="60" y="145" font-family="Arial" font-size="16" fill="#666">Type here...</text>
        
        <!-- Toggle Switch -->
        <rect x="50" y="190" width="60" height="30" rx="15" fill="#2196F3"/>
        <circle cx="85" cy="205" r="12" fill="white"/>
        
        <!-- Dropdown -->
        <path d="M50,260 h150 v40 h-150 v-40" fill="white" stroke="#333" stroke-width="2"/>
        <path d="M180,280 l-10,-10 l10,10 l-10,10" fill="none" stroke="#333" stroke-width="2"/>
    </g>
    
    <!-- Connecting Lines -->
    <g stroke="#333" stroke-width="2" fill="none">
        <path d="M360,200 C400,200 420,80 450,100"/>
        <path d="M360,200 C400,200 420,140 450,140"/>
        <path d="M360,200 C400,200 420,200 450,205"/>
        <path d="M360,200 C400,200 420,260 450,280"/>
    </g>
    
    <!-- Animation Indicators -->
    <g fill="#FF5722">
        <circle cx="470" cy="100" r="5">
            <animate attributeName="opacity" values="1;0;1" dur="2s" repeatCount="indefinite"/>
        </circle>
        <circle cx="470" cy="140" r="5">
            <animate attributeName="opacity" values="1;0;1" dur="2s" repeatCount="indefinite" begin="0.5s"/>
        </circle>
        <circle cx="470" cy="205" r="5">
            <animate attributeName="opacity" values="1;0;1" dur="2s" repeatCount="indefinite" begin="1s"/>
        </circle>
        <circle cx="470" cy="280" r="5">
            <animate attributeName="opacity" values="1;0;1" dur="2s" repeatCount="indefinite" begin="1.5s"/>
        </circle>
    </g>
</svg>
