<?xml version="1.0" encoding="UTF-8"?>
<svg width="255px" height="63px" viewBox="0 0 255 63" version="1.1" xmlns="http://www.w3.org/2000/svg" xmlns:xlink="http://www.w3.org/1999/xlink">
    
    <title>Colour Logo</title>
    <desc>Created with Sketch.</desc>
    <defs></defs>
    <g id="Page-2" stroke="none" stroke-width="1" fill="none" fill-rule="evenodd">
        <g id="Colour-Logo" transform="translate(-158.000000, -117.000000)">
            <g id="Group" transform="translate(152.000000, 112.000000)">
                <text id="graphitEdge" font-family="PTSans-Bold, PT Sans" font-size="36" font-weight="bold" letter-spacing="1.01999998">
                    <tspan x="5.4520001" y="60" fill="#4D4D4D">graphit</tspan>
                    <tspan x="123.688" y="60" fill="#8B0000">Edge</tspan>
                    <tspan x="203.548" y="60" fill="#8B0000"> </tspan>
                </text>
                <g id="pencil-icon" transform="translate(202.500000, 2.000000) scale(0.034000)" fill="#8B0000">
                    <path d="M363 1536 L454 1445 L219 1210 L128 1301 L128 1408 L256 1408 L256 1536 Z M886 608 C886 593.333333 878.666667 586 864 586 C857.333333 586 851.666667 588.333333 847 593 L305 1135 C300.333333 1139.666667 298 1145.333333 298 1152 C298 1166.666667 305.333333 1174 320 1174 C326.666667 1174 332.333333 1171.666667 337 1167 L879 625 C883.666667 620.333333 886 614.666667 886 608 Z M832 416 L1248 832 L416 1664 L0 1664 L0 1248 Z M1515 512 C1515 547.333333 1502.666667 577.333333 1478 602 L1312 768 L896 352 L1062 187 C1086 161.666667 1116 149 1152 149 C1187.333333 149 1217.666667 161.666667 1243 187 L1478 421 C1502.666667 447 1515 477.333333 1515 512 Z" />
                </g>
            </g>
        </g>
    </g>
</svg>
