<svg width="400" height="180" viewBox="0 0 400 180" fill="none" xmlns="http://www.w3.org/2000/svg">
  <rect width="400" height="180" rx="24" fill="#F7F7FA" />
  <g>
    <rect x="40" y="40" width="320" height="100" rx="16" fill="#fff" stroke="#6366F1" stroke-width="2.5" />
    <g>
      <rect x="64" y="64" width="16" height="16" rx="4" fill="#10B981" />
      <polyline points="70,72 75,78 80,68" fill="none" stroke="#fff" stroke-width="2.5" stroke-linecap="round" />
      <text x="92" y="78" font-size="1rem" font-family="Inter, Arial, sans-serif" fill="#6366F1">Identify major
        sections</text>
    </g>
    <g>
      <rect x="64" y="92" width="16" height="16" rx="4" fill="#10B981" />
      <polyline points="70,100 75,106 80,96" fill="none" stroke="#fff" stroke-width="2.5" stroke-linecap="round" />
      <text x="92" y="106" font-size="1rem" font-family="Inter, Arial, sans-serif" fill="#6366F1">Spot repeated
        patterns</text>
    </g>
    <g>
      <rect x="220" y="64" width="16" height="16" rx="4" fill="#10B981" />
      <polyline points="226,72 231,78 236,68" fill="none" stroke="#fff" stroke-width="2.5" stroke-linecap="round" />
      <text x="248" y="78" font-size="1rem" font-family="Inter, Arial, sans-serif" fill="#6366F1">Create HTML
        skeleton</text>
    </g>
    <g>
      <rect x="220" y="92" width="16" height="16" rx="4" fill="#10B981" />
      <polyline points="226,100 231,106 236,96" fill="none" stroke="#fff" stroke-width="2.5" stroke-linecap="round" />
      <text x="248" y="106" font-size="1rem" font-family="Inter, Arial, sans-serif" fill="#6366F1">Set up base
        styles</text>
    </g>
  </g>
  <text x="200" y="28" text-anchor="middle" font-size="1.2rem" font-family="Inter, Arial, sans-serif" fill="#6366F1"
    font-weight="bold">Quick Wins Checklist</text>
  <text x="200" y="160" text-anchor="middle" font-size="0.9rem" font-family="Inter, Arial, sans-serif"
    fill="#B3B3D1">GraphitEdge</text>
</svg>