<svg width="800" height="400" viewBox="0 0 800 400" xmlns="http://www.w3.org/2000/svg">
  <!-- Console Background -->
  <rect x="0" y="0" width="800" height="400" fill="#202124"/>

  <!-- Console Output Area -->
  <rect x="0" y="0" width="800" height="350" fill="#292a2d"/>

  <!-- Console Messages -->
  <g font-family="Consolas, monospace" font-size="14">
    <!-- Log Message -->
    <g transform="translate(20, 30)">
      <circle cx="10" cy="0" r="6" fill="#8e8e8e"/>
      <text x="30" y="5" fill="#ffffff">
        <tspan>console.log('User logged in:', </tspan>
        <tspan fill="#89c4f4">'john_doe'</tspan>
        <tspan>);</tspan>
      </text>
      <text x="30" y="30" fill="#8e8e8e">→ User logged in: john_doe</text>
    </g>

    <!-- Error Message -->
    <g transform="translate(20, 80)">
      <path d="M4,0 L16,0 L10,10 Z" fill="#ff5252"/>
      <text x="30" y="5" fill="#ff5252">
        <tspan>Uncaught TypeError: </tspan>
        <tspan fill="#ff8a80">Cannot read property 'length' of undefined</tspan>
      </text>
      <text x="30" y="25" fill="#666666">at script.js:24:5</text>
    </g>

    <!-- Warning Message -->
    <g transform="translate(20, 130)">
      <path d="M10,0 L0,15 L20,15 Z" fill="#ffd740"/>
      <text x="30" y="5" fill="#ffd740">
        <tspan>Warning: </tspan>
        <tspan fill="#ffe57f">Form submission failed</tspan>
      </text>
    </g>

    <!-- Info Message -->
    <g transform="translate(20, 180)">
      <circle cx="10" cy="0" r="6" fill="#42a5f5"/>
      <text x="30" y="5" fill="#42a5f5">
        <tspan>Network request completed in </tspan>
        <tspan fill="#90caf9">245ms</tspan>
      </text>
    </g>

    <!-- Object Output -->
    <g transform="translate(20, 230)">
      <text x="0" y="0" fill="#ffffff">
        <tspan>▶ </tspan>
        <tspan fill="#4fc3f7">Object</tspan>
        <tspan> {</tspan>
      </text>
      <text x="20" y="25" fill="#8e8e8e">
        <tspan>name: </tspan>
        <tspan fill="#89c4f4">"John Doe"</tspan>
        <tspan>,</tspan>
      </text>
      <text x="20" y="50" fill="#8e8e8e">
        <tspan>age: </tspan>
        <tspan fill="#ffd740">30</tspan>
        <tspan>,</tspan>
      </text>
      <text x="20" y="75" fill="#8e8e8e">
        <tspan>isAdmin: </tspan>
        <tspan fill="#a5d6a7">true</tspan>
      </text>
      <text x="0" y="100" fill="#ffffff">}</text>
    </g>
  </g>

  <!-- Console Input Area -->
  <g transform="translate(0, 350)">
    <rect x="0" y="0" width="800" height="50" fill="#202124"/>
    <text x="20" y="30" fill="#4fc3f7" font-family="Consolas, monospace" font-size="14">>></text>
    <line x1="40" y1="15" x2="40" y2="35" stroke="#ffffff" stroke-width="1">
      <animate attributeName="opacity" values="1;0;1" dur="1s" repeatCount="indefinite"/>
    </line>
  </g>
</svg> 