<svg width="800" height="400" viewBox="0 0 800 400" xmlns="http://www.w3.org/2000/svg">
  <!-- Memory Panel Background -->
  <rect x="0" y="0" width="800" height="400" fill="#202124"/>

  <!-- Control Bar -->
  <g transform="translate(0, 0)">
    <rect x="0" y="0" width="800" height="40" fill="#292a2d"/>
    <!-- Take Snapshot Button -->
    <rect x="20" y="10" width="120" height="20" rx="3" fill="#1a73e8"/>
    <text x="35" y="24" fill="#ffffff" font-family="Arial" font-size="12">Take Snapshot</text>
    <!-- Record Allocation Button -->
    <rect x="150" y="10" width="140" height="20" rx="3" fill="#3c4043"/>
    <text x="165" y="24" fill="#9ca0a5" font-family="Arial" font-size="12">Record Allocation</text>
  </g>

  <!-- Memory Graph -->
  <g transform="translate(0, 50)">
    <rect x="0" y="0" width="800" height="150" fill="#292a2d"/>
    <!-- Memory Usage Line -->
    <polyline 
      points="
        50,120 
        150,100 
        250,110 
        350,80 
        450,90 
        550,40 
        650,60 
        750,30"
      stroke="#1a73e8" 
      fill="none" 
      stroke-width="2"/>
    
    <!-- Memory Markers -->
    <g font-family="Arial" font-size="10" fill="#9ca0a5">
      <text x="40" y="140">0MB</text>
      <text x="30" y="100">32MB</text>
      <text x="30" y="60">64MB</text>
      <text x="30" y="20">96MB</text>
    </g>
  </g>

  <!-- Heap Snapshot Table -->
  <g transform="translate(0, 210)">
    <!-- Table Header -->
    <rect x="0" y="0" width="800" height="30" fill="#292a2d"/>
    <g font-family="Arial" font-size="12" fill="#ffffff">
      <text x="20" y="20">Constructor</text>
      <text x="250" y="20">Distance</text>
      <text x="350" y="20">Shallow Size</text>
      <text x="450" y="20">Retained Size</text>
    </g>

    <!-- Table Rows -->
    <g font-family="Arial" font-size="12">
      <!-- Row 1 -->
      <g transform="translate(0, 30)">
        <rect x="0" y="0" width="800" height="25" fill="#1f1f1f"/>
        <text x="20" y="17" fill="#89c4f4">HTMLDivElement</text>
        <text x="250" y="17" fill="#9ca0a5">1</text>
        <text x="350" y="17" fill="#9ca0a5">48</text>
        <text x="450" y="17" fill="#9ca0a5">1.2MB</text>
      </g>
      <!-- Row 2 -->
      <g transform="translate(0, 55)">
        <rect x="0" y="0" width="800" height="25" fill="#292a2d"/>
        <text x="20" y="17" fill="#89c4f4">Closure</text>
        <text x="250" y="17" fill="#9ca0a5">2</text>
        <text x="350" y="17" fill="#9ca0a5">32</text>
        <text x="450" y="17" fill="#9ca0a5">2.4MB</text>
      </g>
      <!-- Row 3 -->
      <g transform="translate(0, 80)">
        <rect x="0" y="0" width="800" height="25" fill="#1f1f1f"/>
        <text x="20" y="17" fill="#89c4f4">Array</text>
        <text x="250" y="17" fill="#9ca0a5">3</text>
        <text x="350" y="17" fill="#9ca0a5">128</text>
        <text x="450" y="17" fill="#9ca0a5">5.6MB</text>
      </g>
    </g>
  </g>

  <!-- Memory Distribution Pie Chart -->
  <g transform="translate(600, 260)">
    <circle cx="100" cy="60" r="50" fill="none" stroke="#292a2d" stroke-width="2"/>
    <!-- JS Heap -->
    <path d="M100,60 L100,10 A50,50 0 0,1 143,85 Z" fill="#1a73e8" fill-opacity="0.6"/>
    <!-- DOM -->
    <path d="M100,60 L143,85 A50,50 0 0,1 57,85 Z" fill="#ff5252" fill-opacity="0.6"/>
    <!-- Stack -->
    <path d="M100,60 L57,85 A50,50 0 0,1 100,10 Z" fill="#ffd740" fill-opacity="0.6"/>
    
    <!-- Legend -->
    <g transform="translate(0, 120)" font-family="Arial" font-size="12">
      <rect x="0" y="0" width="12" height="12" fill="#1a73e8" fill-opacity="0.6"/>
      <text x="20" y="10" fill="#ffffff">JS Heap (45%)</text>
      
      <rect x="0" y="20" width="12" height="12" fill="#ff5252" fill-opacity="0.6"/>
      <text x="20" y="30" fill="#ffffff">DOM (35%)</text>
      
      <rect x="0" y="40" width="12" height="12" fill="#ffd740" fill-opacity="0.6"/>
      <text x="20" y="50" fill="#ffffff">Stack (20%)</text>
    </g>
  </g>
</svg> 