<svg width="800" height="300" viewBox="0 0 800 300" xmlns="http://www.w3.org/2000/svg">
  <!-- Keyboard Layout -->
  <g transform="translate(50, 50)">
    <!-- Save Shortcut -->
    <g transform="translate(0, 0)">
      <rect x="0" y="0" width="150" height="80" rx="10" fill="#f0f7ff" stroke="#3273dc" stroke-width="2"/>
      <text x="75" y="35" text-anchor="middle" font-family="Arial" font-size="16" fill="#363636">Ctrl/Cmd + S</text>
      <text x="75" y="60" text-anchor="middle" font-family="Arial" font-size="14" fill="#666">Save</text>
    </g>

    <!-- Find Shortcut -->
    <g transform="translate(170, 0)">
      <rect x="0" y="0" width="150" height="80" rx="10" fill="#f0f7ff" stroke="#3273dc" stroke-width="2"/>
      <text x="75" y="35" text-anchor="middle" font-family="Arial" font-size="16" fill="#363636">Ctrl/Cmd + F</text>
      <text x="75" y="60" text-anchor="middle" font-family="Arial" font-size="14" fill="#666">Find</text>
    </g>

    <!-- Replace Shortcut -->
    <g transform="translate(340, 0)">
      <rect x="0" y="0" width="150" height="80" rx="10" fill="#f0f7ff" stroke="#3273dc" stroke-width="2"/>
      <text x="75" y="35" text-anchor="middle" font-family="Arial" font-size="16" fill="#363636">Ctrl/Cmd + H</text>
      <text x="75" y="60" text-anchor="middle" font-family="Arial" font-size="14" fill="#666">Replace</text>
    </g>

    <!-- Terminal Shortcut -->
    <g transform="translate(510, 0)">
      <rect x="0" y="0" width="150" height="80" rx="10" fill="#f0f7ff" stroke="#3273dc" stroke-width="2"/>
      <text x="75" y="35" text-anchor="middle" font-family="Arial" font-size="16" fill="#363636">Ctrl + `</text>
      <text x="75" y="60" text-anchor="middle" font-family="Arial" font-size="14" fill="#666">Terminal</text>
    </g>
  </g>

  <!-- Multi-cursor Example -->
  <g transform="translate(50, 170)">
    <rect x="0" y="0" width="700" height="100" rx="10" fill="#f5f5f5" stroke="#dbdbdb" stroke-width="2"/>
    <text x="20" y="30" font-family="Consolas, monospace" font-size="14" fill="#363636">const item1 = 'value';</text>
    <text x="20" y="55" font-family="Consolas, monospace" font-size="14" fill="#363636">const item2 = 'value';</text>
    <text x="20" y="80" font-family="Consolas, monospace" font-size="14" fill="#363636">const item3 = 'value';</text>
    <!-- Cursors -->
    <circle cx="95" cy="30" r="3" fill="#007acc"/>
    <circle cx="95" cy="55" r="3" fill="#007acc"/>
    <circle cx="95" cy="80" r="3" fill="#007acc"/>
  </g>
</svg> 